HIERARCHY
ROOT Hips
{
	OFFSET 0.00 0.00 0.00
	CHANNELS 6 Xposition Yposition Zposition Xrotation Yrotation Zrotation
	JOINT Spine
	{
		OFFSET 0.00000 1.15266 1.72900
		CHANNELS 3 Xrotation Yrotation Zrotation
		JOINT Spine1
		{
			OFFSET 0.00000 0.40032 2.27031
			CHANNELS 3 Xrotation Yrotation Zrotation
			JOINT Spine2
			{
				OFFSET 0.00000 0.20092 2.29656
				CHANNELS 3 Xrotation Yrotation Zrotation
				JOINT Spine3
				{
					OFFSET 0.00000 0.00000 2.30533
					CHANNELS 3 Xrotation Yrotation Zrotation
					JOINT Neck
					{
						OFFSET 0.00000 -0.86449 6.05149
						CHANNELS 3 Xrotation Yrotation Zrotation
						JOINT Head
						{
							OFFSET 0.00000 -0.55043 3.12167
							CHANNELS 3 Xrotation Yrotation Zrotation
							End Site
							{
								OFFSET 0.00000 0.00000 3.73175
							}
						}
					}
					JOINT RightShoulder
					{
						OFFSET -0.78828 -1.31380 4.25672
						CHANNELS 3 Xrotation Yrotation Zrotation
						JOINT RightArm
						{
							OFFSET -3.91513 0.00000 0.00000
							CHANNELS 3 Xrotation Yrotation Zrotation
							JOINT RightForeArm
							{
								OFFSET -6.91491 0.00000 0.00000
								CHANNELS 3 Xrotation Yrotation Zrotation
								JOINT RightHand
								{
									OFFSET -6.09622 0.00000 0.00000
									CHANNELS 3 Xrotation Yrotation Zrotation
									JOINT RightHandEnd
									{
										OFFSET -1.74995 0.00000 0.00000
										CHANNELS 3 Xrotation Yrotation Zrotation
										End Site
										{
											OFFSET -1.74995 0.00000 0.00000
										}
									}
									JOINT RightHandThumb1
									{
										OFFSET -0.69998 -1.16663 -0.46665
										CHANNELS 3 Yrotation Xrotation Zrotation
										End Site
										{
											OFFSET -1.69032 -0.45292 0.00000
										}
									}
								}
							}
						}
					}
					JOINT LeftShoulder
					{
						OFFSET 0.78828 -1.31380 4.25672
						CHANNELS 3 Xrotation Yrotation Zrotation
						JOINT LeftArm
						{
							OFFSET 3.91513 0.00000 0.00000
							CHANNELS 3 Xrotation Yrotation Zrotation
							JOINT LeftForeArm
							{
								OFFSET 6.91491 0.00000 0.00000
								CHANNELS 3 Xrotation Yrotation Zrotation
								JOINT LeftHand
								{
									OFFSET 6.09622 0.00000 0.00000
									CHANNELS 3 Xrotation Yrotation Zrotation
									JOINT LeftHandEnd
									{
										OFFSET 1.74995 0.00000 0.00000
										CHANNELS 3 Xrotation Yrotation Zrotation
										End Site
										{
											OFFSET 1.74995 0.00000 0.00000
										}
									}
									JOINT LeftHandThumb1
									{
										OFFSET 0.69998 -1.16663 -0.46665
										CHANNELS 3 Yrotation Xrotation Zrotation
										End Site
										{
											OFFSET 1.69032 -0.45292 0.00000
										}
									}
								}
							}
						}
					}
				}
			}
		}
	}
	JOINT RightUpLeg
	{
		OFFSET -2.33857 0.00000 -0.68318
		CHANNELS 3 Xrotation Yrotation Zrotation
		JOINT RightLeg
		{
			OFFSET 0.00000 0.00000 -10.74496
			CHANNELS 3 Xrotation Yrotation Zrotation
			JOINT RightFoot
			{
				OFFSET 0.00000 0.00000 -10.93085
				CHANNELS 3 Xrotation Yrotation Zrotation
				JOINT RightToeBase
				{
					OFFSET 0.00000 -4.08727 -1.48765
					CHANNELS 3 Xrotation Yrotation Zrotation
					End Site
					{
						OFFSET 0.00000 -1.89187 -0.00000
					}
				}
			}
		}
	}
	JOINT LeftUpLeg
	{
		OFFSET 2.33857 0.00000 -0.68318
		CHANNELS 3 Xrotation Yrotation Zrotation
		JOINT LeftLeg
		{
			OFFSET 0.00000 0.00000 -10.74496
			CHANNELS 3 Xrotation Yrotation Zrotation
			JOINT LeftFoot
			{
				OFFSET 0.00000 0.00000 -10.93085
				CHANNELS 3 Xrotation Yrotation Zrotation
				JOINT LeftToeBase
				{
					OFFSET 0.00000 -4.08727 -1.48765
					CHANNELS 3 Xrotation Yrotation Zrotation
					End Site
					{
						OFFSET 0.00000 -1.89187 -0.00000
					}
				}
			}
		}
	}
}
MOTION
Frames: 16
Frame Time: 0.008342
 -3.6584 51.7408 22.1598 0.7938 12.4624 173.7988 13.7840 -0.2375 -2.8915 3.8660 -0.1404 -0.7174 5.7661 0.3437 -8.3766 0.4270 3.7660 -4.3566 2.1223 10.9031 5.8404 10.5463 0.8445 4.8079 -10.8096 4.2008 4.2015 -60.3694 -3.7397 -15.7305 -0.0000 0.0001 49.1241 -35.3866 18.3471 5.6446 0.0000 -0.0000 0.0000 0.0000 -0.0000 -0.0000 3.5800 -20.4129 3.0823 -87.6552 33.1950 43.2347 -0.0001 -0.0001 -97.9650 -10.8155 -35.2665 -8.1359 0.0000 -0.0000 -0.0000 -0.0000 -0.0000 0.0000 -60.3307 1.3868 4.6040 83.5779 0.0000 0.0000 -14.9851 10.8925 -19.8612 -1.3347 0.0000 -0.0000 -18.8319 3.0785 20.0388 69.5255 0.0000 0.0000 -9.9966 6.5351 -14.7452 -27.2695 0.0000 -0.0000
 -3.6632 52.3650 22.2568 -0.1150 13.6287 174.3953 13.0373 -0.0343 -2.7854 3.6101 0.0191 -0.7439 5.6977 0.3863 -9.2924 0.4115 4.1412 -4.6564 1.2265 12.2559 6.1947 10.1311 0.6461 5.2557 -9.0775 1.6965 4.2039 -56.0465 -5.0910 -16.5984 -0.0000 0.0000 48.0399 -33.3026 19.8998 4.4991 0.0000 0.0000 0.0000 0.0000 0.0000 0.0000 3.9336 -16.0813 3.2414 -79.1690 35.0460 38.6862 -0.0001 -0.0001 -94.5671 -9.8729 -33.1857 -7.4387 0.0000 -0.0000 -0.0000 0.0000 0.0000 -0.0000 -59.0639 1.7267 3.4338 75.7922 0.0000 0.0000 -12.8913 10.6056 -18.8627 -0.8255 0.0000 -0.0000 -19.4162 3.3570 19.6555 70.1482 0.0000 0.0000 -5.4829 8.9028 -16.9210 -29.7094 0.0000 -0.0000
 -3.6633 53.0104 22.3281 -0.7805 14.8888 174.8913 12.4571 0.3280 -2.7596 3.4040 0.2255 -0.7484 5.5610 0.4781 -9.9929 0.3715 4.4546 -4.8462 0.3915 13.4144 6.5255 9.7012 0.3915 5.4999 -7.1955 -0.1534 4.1732 -52.1411 -7.3960 -17.8763 -0.0000 0.0000 47.2779 -31.6799 21.5266 3.2734 -0.0000 -0.0000 0.0000 0.0000 -0.0000 0.0000 4.4488 -11.8403 3.4608 -69.8479 36.4042 33.0813 -0.0001 -0.0001 -91.1463 -9.4401 -31.0078 -7.1124 -0.0000 0.0000 -0.0000 0.0000 0.0000 -0.0000 -57.1634 2.2266 2.4094 68.0692 0.0000 0.0000 -10.4917 10.6811 -17.7269 -0.4337 0.0000 -0.0000 -19.7758 3.5836 19.3927 70.7949 0.0000 0.0000 -1.1770 11.0843 -19.1593 -31.8377 0.0000 -0.0000
 -3.6589 53.6775 22.3694 -1.1132 16.2585 175.2419 12.1114 0.9001 -2.8309 3.2666 0.4678 -0.7334 5.3642 0.6077 -10.4756 0.3013 4.6977 -4.9372 -0.3683 14.3713 6.8505 9.2501 0.0969 5.5525 -5.1515 -1.3374 4.1355 -48.8471 -10.6896 -19.3877 -0.0000 0.0000 46.7241 -30.3849 23.0002 1.9665 0.0000 -0.0000 -0.0000 -0.0000 0.0000 0.0000 5.1658 -7.8848 3.7204 -60.0940 37.1310 26.9867 -0.0001 -0.0001 -87.9066 -9.6383 -29.0015 -7.0959 -0.0000 -0.0000 -0.0000 -0.0000 0.0000 0.0000 -54.7665 2.8690 1.5455 60.8110 0.0000 0.0000 -7.9655 11.0787 -16.4767 -0.1864 0.0000 -0.0000 -19.8180 3.7795 19.2709 71.4678 0.0000 0.0000 2.6418 12.9223 -21.2801 -33.5768 0.0000 -0.0000
 -3.6461 54.3603 22.3783 -1.1259 17.6361 175.4233 12.0007 1.6057 -2.9694 3.1983 0.7333 -0.7004 5.1357 0.7627 -10.7539 0.1896 4.8600 -4.9380 -1.0651 15.1337 7.1741 8.7684 -0.2233 5.4316 -2.9618 -1.9425 4.1003 -46.2826 -14.8671 -20.9166 -0.0000 0.0000 46.2565 -29.3015 24.1033 0.6486 -0.0000 0.0000 0.0000 -0.0000 -0.0000 0.0000 6.1058 -4.3482 3.9847 -50.4021 37.2720 20.9597 -0.0001 -0.0001 -84.9961 -10.4122 -27.3219 -7.2711 0.0000 0.0000 0.0000 0.0000 0.0000 -0.0000 -52.1047 3.5382 0.8108 54.4118 0.0000 0.0000 -5.5203 11.7807 -15.2089 -0.0718 0.0000 -0.0000 -19.6008 3.8240 19.2486 72.2443 0.0000 0.0000 5.7127 14.3732 -23.1163 -34.9304 0.0000 -0.0000
 -3.6219 55.0481 22.3555 -0.8924 18.9430 175.4187 12.0947 2.3809 -3.1252 3.1807 1.0063 -0.6572 4.9031 0.9314 -10.8358 0.0286 4.9371 -4.8653 -1.7304 15.7179 7.4992 8.2434 -0.5514 5.1503 -0.6757 -2.1557 4.0794 -44.4254 -19.6729 -22.2414 -0.0000 0.0000 45.7826 -28.3850 24.7049 -0.5600 -0.0000 -0.0000 0.0000 0.0000 -0.0000 0.0000 7.2634 -1.2922 4.2131 -41.2545 37.0116 15.4228 -0.0000 -0.0001 -82.5007 -11.5867 -26.0210 -7.5269 -0.0000 0.0000 -0.0000 -0.0000 0.0000 0.0000 -49.4754 4.1242 0.2615 49.2495 0.0000 0.0000 -3.3900 12.7725 -14.0495 -0.0433 0.0000 -0.0000 -19.2689 3.6322 19.2799 73.1870 0.0000 0.0000 7.8650 15.4853 -24.5135 -35.9468 0.0000 -0.0000
 -3.5833 55.7272 22.3044 -0.5504 20.0753 175.2477 12.3137 3.1274 -3.2399 3.1890 1.2654 -0.6042 4.6996 1.1007 -10.7312 -0.1858 4.9434 -4.7437 -2.4091 16.1366 7.8103 7.6668 -0.8664 4.7322 1.6153 -2.2231 4.0945 -43.1060 -24.7728 -23.1872 -0.0000 0.0000 45.2881 -27.6273 24.8034 -1.5469 0.0000 0.0000 0.0000 -0.0000 0.0000 0.0000 8.5978 1.2811 4.3590 -33.0335 36.5780 10.6093 -0.0000 -0.0001 -80.4489 -12.9286 -25.1017 -7.7840 -0.0000 -0.0000 -0.0000 0.0000 0.0000 -0.0000 -47.1796 4.5022 -0.0294 45.5968 0.0000 0.0000 -1.7817 14.0246 -13.1457 -0.0300 0.0000 -0.0000 -19.0420 3.1005 19.2971 74.3551 0.0000 0.0000 9.0147 16.3350 -25.3602 -36.6699 0.0000 -0.0000
 -3.5272 56.3873 22.2309 -0.1935 20.9294 174.9517 12.6070 3.7299 -3.2688 3.2091 1.5019 -0.5472 4.5605 1.2671 -10.4554 -0.4548 4.8884 -4.5835 -3.1410 16.4090 8.0837 7.0408 -1.1429 4.1953 3.7935 -2.3643 4.1692 -42.0509 -29.8558 -23.6404 -0.0000 0.0000 44.8428 -27.0096 24.5087 -2.2492 -0.0000 -0.0000 -0.0000 0.0000 -0.0000 0.0000 10.0568 3.4207 4.3850 -26.0118 36.1793 6.5866 -0.0000 -0.0001 -78.8239 -14.2055 -24.5508 -7.9972 0.0000 -0.0000 0.0000 -0.0000 -0.0000 0.0000 -45.3744 4.5772 -0.0264 43.5628 0.0000 0.0000 -0.8495 15.4748 -12.6085 0.0472 0.0000 0.0000 -19.0719 2.1500 19.2119 75.7682 0.0000 0.0000 9.1566 16.9718 -25.5917 -37.1114 0.0000 -0.0000
 -3.4537 57.0226 22.1414 0.1285 21.4719 174.5863 12.9449 4.1428 -3.2023 3.2403 1.6970 -0.4930 4.4992 1.4351 -10.0158 -0.7651 4.7878 -4.3999 -3.9526 16.5478 8.3097 6.3889 -1.3494 3.5463 5.7459 -2.7420 4.3402 -40.9292 -34.6712 -23.5208 -0.0000 0.0000 44.5729 -26.4946 23.9869 -2.6640 0.0000 -0.0000 -0.0000 0.0000 -0.0000 0.0000 11.5639 5.1592 4.2792 -20.3517 36.0124 3.3629 -0.0000 -0.0001 -77.5969 -15.2152 -24.3545 -8.1454 -0.0000 0.0000 -0.0000 -0.0000 -0.0000 0.0000 -44.0914 4.3403 0.2484 43.0925 0.0000 0.0000 -0.6797 17.0174 -12.4556 0.2494 0.0000 0.0000 -19.4423 0.8020 18.9385 77.3938 0.0000 0.0000 8.3485 17.3830 -25.1761 -37.2459 0.0000 -0.0000
 -3.3643 57.6338 22.0426 0.4449 21.7135 174.1983 13.3394 4.3586 -3.0608 3.2970 1.8458 -0.4411 4.5244 1.5978 -9.4259 -1.1040 4.6641 -4.1964 -4.8450 16.5663 8.4628 5.7539 -1.4454 2.8057 7.3832 -3.4204 4.6272 -39.4432 -39.0718 -22.7895 -0.0000 0.0000 44.6237 -25.9869 23.3913 -2.8508 0.0000 -0.0000 -0.0000 -0.0000 0.0000 -0.0000 13.0371 6.5292 4.0472 -16.1076 36.2119 0.9059 -0.0000 -0.0001 -76.7508 -15.8207 -24.5034 -8.2195 0.0000 0.0000 0.0000 0.0000 -0.0000 0.0000 -43.2011 3.8491 0.6850 43.9645 0.0000 0.0000 -1.2888 18.5191 -12.6095 0.6047 0.0000 0.0000 -20.1300 -0.8543 18.4011 79.1533 0.0000 0.0000 6.7088 17.4979 -24.1318 -37.0252 0.0000 -0.0000
 -3.2627 58.2236 21.9410 0.7877 21.7150 173.8290 13.7888 4.4170 -2.8816 3.3948 1.9379 -0.3934 4.6369 1.7613 -8.6899 -1.4542 4.5407 -3.9750 -5.8020 16.4732 8.5143 5.1901 -1.3933 2.0035 8.6503 -4.3989 5.0350 -37.3634 -42.9784 -21.4274 -0.0000 0.0000 45.1229 -25.3684 22.8226 -2.8967 -0.0000 -0.0000 0.0000 -0.0000 -0.0000 0.0000 14.3769 7.5407 3.7166 -13.2478 36.8695 -0.8071 -0.0000 -0.0001 -76.2877 -15.9415 -24.9780 -8.2190 0.0000 -0.0000 -0.0000 -0.0000 0.0000 -0.0000 -42.5276 3.2136 1.1397 45.8335 0.0000 0.0000 -2.6220 19.8495 -12.9304 1.0909 0.0000 0.0000 -21.1004 -2.6691 17.5586 80.9414 0.0000 0.0000 4.4252 17.2200 -22.5292 -36.4077 0.0000 -0.0000
 -3.1530 58.7946 21.8440 1.1695 21.5616 173.5012 14.2729 4.3790 -2.6968 3.5432 1.9780 -0.3456 4.8337 1.9248 -7.8160 -1.7990 4.4302 -3.7303 -6.7971 16.2905 8.4611 4.7475 -1.1792 1.1466 9.5140 -5.6473 5.5534 -34.5226 -46.3314 -19.4131 -0.0000 0.0000 46.1544 -24.5141 22.3220 -2.8870 -0.0000 -0.0000 0.0000 -0.0000 -0.0000 0.0000 15.4791 8.2178 3.3272 -11.6911 38.0104 -1.7886 -0.0000 -0.0001 -76.2211 -15.5619 -25.7322 -8.1483 0.0000 -0.0000 -0.0000 0.0000 0.0000 -0.0000 -41.9014 2.5562 1.4922 48.2879 0.0000 0.0000 -4.5610 20.9161 -13.2700 1.6457 0.0000 0.0000 -22.3289 -4.4729 16.4179 82.6373 0.0000 0.0000 1.7585 16.4949 -20.4960 -35.3973 0.0000 -0.0000
 -3.0384 59.3476 21.7589 1.5675 21.3184 173.2218 14.7447 4.2811 -2.5222 3.7369 1.9662 -0.2958 5.1186 2.1023 -6.8017 -2.1222 4.3545 -3.4609 -7.8001 16.0308 8.2700 4.4657 -0.8015 0.2767 9.9701 -7.1118 6.1594 -30.8934 -49.1057 -16.7775 -0.0000 0.0000 47.7408 -23.2993 21.8511 -2.8937 -0.0000 0.0000 0.0000 0.0000 -0.0000 -0.0000 16.2427 8.5902 2.9254 -11.3271 39.5790 -2.0370 -0.0000 -0.0001 -76.5632 -14.7264 -26.6643 -8.0213 -0.0000 0.0000 -0.0000 -0.0000 0.0000 0.0000 -41.2000 1.9567 1.6723 50.9153 0.0000 0.0000 -6.9291 21.6791 -13.5264 2.1838 0.0000 0.0000 -23.8141 -6.1405 15.0238 84.1287 0.0000 0.0000 -0.9872 15.3618 -18.2128 -34.0727 0.0000 -0.0000
 -2.9206 59.8832 21.6933 1.9582 21.0258 172.9686 15.1688 4.1475 -2.3531 3.9610 1.9141 -0.2400 5.4895 2.2988 -5.6515 -2.4085 4.3150 -3.1564 -8.7779 15.7248 7.9449 4.3659 -0.2863 -0.6047 10.0266 -8.7241 6.8169 -26.5360 -51.2813 -13.5799 -0.0000 0.0001 49.8461 -21.6523 21.3162 -2.9549 0.0000 -0.0000 -0.0000 -0.0000 -0.0000 0.0000 16.5992 8.7229 2.5538 -12.0316 41.4450 -1.5708 -0.0000 -0.0001 -77.3061 -13.5302 -27.6161 -7.8524 0.0000 0.0000 -0.0000 0.0000 0.0000 -0.0000 -40.3372 1.4444 1.6663 53.3673 0.0000 0.0000 -9.5183 22.1505 -13.6512 2.6217 0.0000 0.0000 -25.5319 -7.5951 13.4498 85.3126 0.0000 0.0000 -3.5263 13.9763 -15.8748 -32.5925 0.0000 -0.0000
 -2.8007 60.4021 21.6533 2.3103 20.7191 172.7052 15.5023 3.9999 -2.1800 4.1954 1.8350 -0.1743 5.9437 2.5238 -4.3674 -2.6441 4.3110 -2.8101 -9.6945 15.3981 7.4823 4.4537 0.3297 -1.4866 9.7126 -10.3907 7.4793 -21.6201 -52.8810 -9.9237 -0.0000 0.0001 52.3706 -19.5492 20.5808 -3.0761 -0.0000 0.0000 0.0000 0.0000 -0.0000 0.0000 16.5166 8.6793 2.2542 -13.6438 43.4368 -0.4573 -0.0000 -0.0001 -78.4078 -12.1069 -28.3795 -7.6617 -0.0000 -0.0000 -0.0000 -0.0000 -0.0000 0.0000 -39.2902 1.0189 1.5137 55.4034 0.0000 0.0000 -12.1161 22.3709 -13.6389 2.8915 0.0000 0.0000 -27.4461 -8.7892 11.7928 86.1033 0.0000 0.0000 -5.6520 12.5735 -13.6487 -31.1710 0.0000 -0.0000
 -2.6792 60.9063 21.6434 2.6043 20.4312 172.3862 15.7100 3.8629 -1.9969 4.4204 1.7426 -0.0958 6.4755 2.7886 -2.9524 -2.8169 4.3396 -2.4209 -10.5132 15.0721 6.8815 4.7178 0.9931 -2.3540 9.0768 -11.9938 8.0952 -16.3626 -53.9763 -5.9075 -0.0000 0.0001 55.1639 -17.0407 19.5059 -3.2208 0.0000 0.0000 -0.0000 0.0000 -0.0000 0.0000 15.9985 8.5014 2.0651 -15.9425 45.3825 1.1672 -0.0000 -0.0001 -79.7887 -10.6017 -28.7413 -7.4570 -0.0000 -0.0000 -0.0000 0.0000 0.0000 -0.0000 -38.0715 0.6661 1.2835 56.8936 0.0000 0.0000 -14.5289 22.3930 -13.5082 2.9485 0.0000 0.0000 -29.4892 -9.6988 10.1636 86.4346 0.0000 0.0000 -7.2684 11.3928 -11.6522 -30.0204 0.0000 -0.0000
